<svg id="visual" viewBox="0 0 900 600" width="900" height="600" xmlns="http://www.w3.org/2000/svg" xmlns:xlink="http://www.w3.org/1999/xlink" version="1.1"><g transform="translate(448.4773288979246 261.9935112663711)"><path d="M159.8 -253.3C213.9 -245.5 269.3 -216.5 293.1 -170.8C316.8 -125 308.9 -62.5 296.2 -7.3C283.5 47.8 266 95.7 243.9 144.3C221.9 193 195.2 242.4 153.8 277.2C112.3 311.9 56.2 332 0.2 331.7C-55.8 331.4 -111.7 310.7 -146.2 272C-180.7 233.2 -193.8 176.4 -218.9 128C-244 79.7 -281 39.8 -296.7 -9.1C-312.5 -58 -306.9 -116 -277.1 -156.1C-247.3 -196.3 -193.1 -218.5 -142.9 -228.6C-92.7 -238.6 -46.3 -236.5 3.2 -242.1C52.8 -247.8 105.7 -261.1 159.8 -253.3" fill="#EEC643"></path></g></svg>