<svg id="visual" viewBox="0 0 960 120" width="960" height="120" xmlns="http://www.w3.org/2000/svg" xmlns:xlink="http://www.w3.org/1999/xlink" version="1.1"><rect x="0" y="0" width="960" height="120" fill="#ffffff"></rect><path d="M0 89L40 90.7C80 92.3 160 95.7 240 84.5C320 73.3 400 47.7 480 39.2C560 30.7 640 39.3 720 48.8C800 58.3 880 68.7 920 73.8L960 79L960 0L920 0C880 0 800 0 720 0C640 0 560 0 480 0C400 0 320 0 240 0C160 0 80 0 40 0L0 0Z" fill="#eec643"></path><path d="M0 29L40 34.8C80 40.7 160 52.3 240 50.7C320 49 400 34 480 27.2C560 20.3 640 21.7 720 29.7C800 37.7 880 52.3 920 59.7L960 67L960 0L920 0C880 0 800 0 720 0C640 0 560 0 480 0C400 0 320 0 240 0C160 0 80 0 40 0L0 0Z" fill="#0a2342"></path></svg>