<svg id="visual" viewBox="0 0 960 120" width="960" height="120" xmlns="http://www.w3.org/2000/svg" xmlns:xlink="http://www.w3.org/1999/xlink" version="1.1"><rect x="0" y="0" width="960" height="120" fill="#ffffff"></rect><path d="M0 29L40 27.3C80 25.7 160 22.3 240 33.5C320 44.7 400 70.3 480 78.8C560 87.3 640 78.7 720 69.2C800 59.7 880 49.3 920 44.2L960 39L960 121L920 121C880 121 800 121 720 121C640 121 560 121 480 121C400 121 320 121 240 121C160 121 80 121 40 121L0 121Z" fill="#eec643"></path><path d="M0 89L40 83.2C80 77.3 160 65.7 240 67.3C320 69 400 84 480 90.8C560 97.7 640 96.3 720 88.3C800 80.3 880 65.7 920 58.3L960 51L960 121L920 121C880 121 800 121 720 121C640 121 560 121 480 121C400 121 320 121 240 121C160 121 80 121 40 121L0 121Z" fill="#0a2342"></path></svg>